<svg width="1024" height="1024" viewBox="0 0 1024 1024" fill="none" xmlns="http://www.w3.org/2000/svg">
<rect width="1024" height="1024" fill="#F5F5F5"/>
<rect x="1.5" y="1.5" width="1021" height="1021" fill="#F5F5F5"/>
<rect x="1.5" y="1.5" width="1021" height="1021" stroke="black" stroke-width="3"/>
<g filter="url(#filter0_d_8_2)">
<path d="M212.031 903C207.936 903 204.416 901.528 201.472 898.584C198.656 895.64 197.248 892.12 197.248 888.024V787.224C197.248 780.312 199.552 775.192 204.16 771.864C208.768 768.536 215.872 766.872 225.472 766.872V878.616H275.008C281.408 878.616 286.272 880.728 289.6 884.952C293.056 889.048 294.784 895.064 294.784 903H212.031ZM359.623 781.464C359.623 777.752 360.967 774.68 363.655 772.248C366.471 769.816 369.863 768.6 373.831 768.6H426.247C435.719 768.6 444.103 770.52 451.399 774.36C458.695 778.072 464.327 783.32 468.295 790.104C472.391 796.888 474.439 804.76 474.439 813.72C474.439 822.808 472.455 830.808 468.487 837.72C464.519 844.504 458.887 849.752 451.591 853.464C444.423 857.176 435.975 859.032 426.247 859.032H387.847V884.376C387.847 891.032 385.415 896.088 380.551 899.544C375.815 903 368.839 904.728 359.623 904.728V781.464ZM426.247 834.648C432.647 834.648 437.575 832.856 441.031 829.272C444.487 825.56 446.215 820.312 446.215 813.528C446.215 807 444.487 801.944 441.031 798.36C437.575 794.776 432.647 792.984 426.247 792.984H387.847V834.648H426.247ZM592.766 904.728C582.014 904.728 572.414 903.128 563.966 899.928C555.646 896.728 549.118 892.248 544.382 886.488C539.774 880.728 537.47 874.136 537.47 866.712C537.47 860.312 539.582 855.704 543.806 852.888C548.158 850.072 555.198 848.664 564.926 848.664C564.542 851.096 564.35 854.168 564.35 857.88C564.35 865.304 566.718 870.936 571.454 874.776C576.318 878.488 583.422 880.344 592.766 880.344C611.326 880.344 620.606 874.776 620.606 863.64C620.606 852.12 612.67 846.36 596.798 846.36H590.654C587.07 846.36 584.19 845.272 582.014 843.096C579.838 840.92 578.75 838.04 578.75 834.456C578.75 830.872 579.838 827.992 582.014 825.816C584.19 823.64 587.07 822.552 590.654 822.552H596.99C603.646 822.552 608.574 821.272 611.774 818.712C615.102 816.024 616.766 811.992 616.766 806.616C616.766 801.752 614.718 797.976 610.622 795.288C606.654 792.6 600.958 791.256 593.534 791.256C585.214 791.256 578.75 792.728 574.142 795.672C569.662 798.488 567.422 802.52 567.422 807.768C567.422 809.944 567.678 812.824 568.19 816.408C560.126 816.664 553.534 815.32 548.414 812.376C543.294 809.432 540.734 805.464 540.734 800.472C540.734 793.944 542.91 788.12 547.262 783C551.742 777.88 557.95 773.912 565.886 771.096C573.95 768.28 583.166 766.872 593.534 766.872C603.902 766.872 612.99 768.536 620.798 771.864C628.606 775.064 634.622 779.672 638.846 785.688C643.198 791.704 645.374 798.68 645.374 806.616C645.374 818.264 639.422 827.544 627.518 834.456C635.326 838.04 640.894 842.072 644.222 846.552C647.55 850.904 649.214 856.6 649.214 863.64C649.214 871.704 646.846 878.872 642.11 885.144C637.374 891.288 630.718 896.088 622.142 899.544C613.694 903 603.902 904.728 592.766 904.728ZM730.268 903C726.3 903 722.908 901.784 720.092 899.352C717.404 896.92 716.06 893.848 716.06 890.136V781.464C716.06 777.752 717.404 774.68 720.092 772.248C722.908 769.816 726.3 768.6 730.268 768.6H772.124C783.644 768.6 793.82 770.84 802.652 775.32C811.484 779.672 818.332 785.88 823.196 793.944C828.188 802.008 830.684 811.224 830.684 821.592V849.624C830.684 859.992 828.188 869.272 823.196 877.464C818.332 885.528 811.42 891.8 802.46 896.28C793.628 900.76 783.516 903 772.124 903H730.268ZM770.204 878.808C780.828 878.808 788.828 876.376 794.204 871.512C799.708 866.648 802.46 859.48 802.46 850.008V821.208C802.46 811.864 799.708 804.824 794.204 800.088C788.828 795.224 780.828 792.792 770.204 792.792H744.284V878.808H770.204Z" fill="black"/>
</g>
<path d="M486.48 260.196L242.618 87.629C221.272 72.5243 192.393 86.8157 189.575 113.877L157.391 423.048C154.474 451.066 181.576 471.87 205.852 459.857L481.9 323.252C506.176 311.239 508.58 275.834 486.48 260.196Z" fill="black" stroke="black" stroke-width="3"/>
<path d="M863.497 423.048L831.312 113.877C828.495 86.8158 799.615 72.5243 778.27 87.629L534.408 260.196C512.308 275.834 514.711 311.239 538.988 323.252L815.035 459.856C839.312 471.87 866.414 451.066 863.497 423.048Z" fill="black" stroke="black" stroke-width="3"/>
<path fill-rule="evenodd" clip-rule="evenodd" d="M832.173 113.724L864.357 422.895C867.363 451.763 839.454 473.008 814.65 460.733L538.603 324.129C513.799 311.855 511.195 275.511 533.965 259.398L777.828 86.8314C799.715 71.3433 829.284 85.9758 832.173 113.724ZM829.847 113.997C827.151 88.0983 799.554 74.4413 779.126 88.8969L535.263 261.463C514.011 276.502 516.441 310.423 539.592 321.879L815.639 458.483C838.789 469.939 864.837 450.111 862.032 423.168L829.847 113.997Z" fill="black"/>
<path d="M511.033 687.5C613.003 687.5 705.393 662.439 772.339 621.842C839.258 581.261 880.975 524.995 880.975 462.571C880.975 400.147 839.258 343.881 772.339 303.301C705.393 262.703 613.003 237.642 511.033 237.642C409.062 237.642 316.673 262.703 249.727 303.301C182.808 343.881 141.091 400.147 141.091 462.571C141.091 524.995 182.808 581.261 249.727 621.842C316.673 662.439 409.062 687.5 511.033 687.5Z" fill="black" stroke="black" stroke-width="3"/>
<ellipse cx="102.509" cy="16.0304" rx="102.509" ry="16.0304" transform="matrix(0.932832 0.360311 -0.324421 0.945913 225.511 398.025)" fill="#F5F5F5"/>
<ellipse cx="102.509" cy="16.0304" rx="102.509" ry="16.0304" transform="matrix(0.932832 -0.360311 0.324421 0.945913 603.436 474.378)" fill="#F5F5F5"/>
<defs>
<filter id="filter0_d_8_2" x="193.247" y="766.872" width="641.437" height="145.856" filterUnits="userSpaceOnUse" color-interpolation-filters="sRGB">
<feFlood flood-opacity="0" result="BackgroundImageFix"/>
<feColorMatrix in="SourceAlpha" type="matrix" values="0 0 0 0 0 0 0 0 0 0 0 0 0 0 0 0 0 0 127 0" result="hardAlpha"/>
<feOffset dy="4"/>
<feGaussianBlur stdDeviation="2"/>
<feComposite in2="hardAlpha" operator="out"/>
<feColorMatrix type="matrix" values="0 0 0 0 0 0 0 0 0 0 0 0 0 0 0 0 0 0 0.25 0"/>
<feBlend mode="normal" in2="BackgroundImageFix" result="effect1_dropShadow_8_2"/>
<feBlend mode="normal" in="SourceGraphic" in2="effect1_dropShadow_8_2" result="shape"/>
</filter>
</defs>
</svg>
